<?xml version="1.0" encoding="UTF-8" standalone="no"?>
<!-- Created with Inkscape (http://www.inkscape.org/) -->

<svg
   xmlns:dc="http://purl.org/dc/elements/1.1/"
   xmlns:cc="http://creativecommons.org/ns#"
   xmlns:rdf="http://www.w3.org/1999/02/22-rdf-syntax-ns#"
   xmlns:svg="http://www.w3.org/2000/svg"
   xmlns="http://www.w3.org/2000/svg"
   xmlns:sodipodi="http://sodipodi.sourceforge.net/DTD/sodipodi-0.dtd"
   xmlns:inkscape="http://www.inkscape.org/namespaces/inkscape"
   width="744.09448819"
   height="1052.3622047"
   id="svg2"
   version="1.1"
   inkscape:version="0.48.4 r9939"
   sodipodi:docname="default-picture.svg">
  <defs
     id="defs4">
    <filter
       id="filter3829"
       inkscape:label="Desaturate"
       x="0"
       y="0"
       width="1"
       height="1"
       inkscape:menu="Color"
       inkscape:menu-tooltip="Render in shades of gray by reducing saturation to zero"
       color-interpolation-filters="sRGB">
      <feColorMatrix
         id="feColorMatrix3831"
         type="saturate"
         values="0" />
    </filter>
    <filter
       id="filter3981"
       inkscape:label="Sepia"
       x="0"
       y="0"
       width="1"
       height="1"
       inkscape:menu="Color"
       inkscape:menu-tooltip="Render in warm sepia tones"
       color-interpolation-filters="sRGB">
      <feColorMatrix
         id="feColorMatrix3983"
         values="0"
         in="SourceGraphic"
         type="saturate"
         result="result2" />
      <feFlood
         id="feFlood3985"
         flood-color="rgb(160,67,0)"
         flood-opacity="1"
         result="result1" />
      <feBlend
         id="feBlend3987"
         in2="result1"
         mode="multiply"
         in="result2"
         result="result5" />
      <feBlend
         id="feBlend3989"
         in2="result2"
         mode="screen"
         result="result3" />
      <feComposite
         id="feComposite3991"
         in2="result2"
         result="result4"
         operator="arithmetic"
         k2="1" />
      <feComposite
         id="feComposite3993"
         in2="SourceAlpha"
         operator="in"
         in="result4" />
    </filter>
  </defs>
  <sodipodi:namedview
     id="base"
     pagecolor="#ffffff"
     bordercolor="#666666"
     borderopacity="1.0"
     inkscape:pageopacity="0.0"
     inkscape:pageshadow="2"
     inkscape:zoom="3.959798"
     inkscape:cx="-519.39428"
     inkscape:cy="452.92897"
     inkscape:document-units="px"
     inkscape:current-layer="layer1"
     showgrid="false"
     inkscape:window-width="1600"
     inkscape:window-height="823"
     inkscape:window-x="-9"
     inkscape:window-y="-9"
     inkscape:window-maximized="1" />
  <metadata
     id="metadata7">
    <rdf:RDF>
      <cc:Work
         rdf:about="">
        <dc:format>image/svg+xml</dc:format>
        <dc:type
           rdf:resource="http://purl.org/dc/dcmitype/StillImage" />
        <dc:title></dc:title>
      </cc:Work>
    </rdf:RDF>
  </metadata>
  <g
     inkscape:label="Layer 1"
     inkscape:groupmode="layer"
     id="layer1">
    <g
       transform="matrix(0.17403316,0,0,0.17403316,-187.56512,343.11816)"
       id="g3811"
       style="filter:url(#filter3829)">
      <rect
         style="fill:#ffffff;fill-opacity:0.50632911;fill-rule:nonzero;stroke:none"
         id="rect3813"
         width="517.14282"
         height="517.14282"
         x="-621.42859"
         y="239.86217" />
      <g
         id="g3815"
         transform="translate(-28.714313,-17.500045)">
        <path
           sodipodi:nodetypes="sssss"
           inkscape:connector-curvature="0"
           id="path3817"
           d="m -211.42857,589.50507 c 0,99.41125 -82.50753,180 -184.28572,180 -101.7782,0 -152.85716,-143.44589 -152.85716,-242.85714 0,-99.41126 51.07896,-117.14286 152.85716,-117.14286 101.77819,0 184.28572,80.58874 184.28572,180 z"
           style="fill:#d30f21;fill-opacity:1;fill-rule:nonzero;stroke:none" />
        <path
           inkscape:connector-curvature="0"
           id="path3819"
           d="m -377.14285,442.36218 c 0,0 71.42857,-85.71429 2.85714,-165.71429 l 28.57143,-14.28571 c 0,0 57.14286,151.42857 14.28571,182.85714 z"
           style="fill:#803300;stroke:none" />
        <path
           sodipodi:nodetypes="sssss"
           inkscape:connector-curvature="0"
           id="path3821"
           d="m -225.71428,543.79078 c 0,99.41125 -68.22182,225.71429 -170.00001,225.71429 -101.7782,0 -184.28573,-80.58875 -184.28573,-180 0,-99.41126 82.50753,-180 184.28573,-180 101.77819,0 170.00001,34.87445 170.00001,134.28571 z"
           style="fill:#d30f21;fill-opacity:1;fill-rule:nonzero;stroke:none"
           transform="translate(106,0)" />
        <g
           transform="translate(-10,0)"
           id="g3823">
          <path
             sodipodi:type="arc"
             style="fill:#e9afaf;fill-opacity:1;fill-rule:nonzero;stroke:none"
             id="path3825"
             sodipodi:cx="-232.14285"
             sodipodi:cy="502.36218"
             sodipodi:rx="20.714285"
             sodipodi:ry="24.285715"
             d="m -211.42857,502.36218 c 0,13.41263 -9.2741,24.28572 -20.71428,24.28572 -11.44019,0 -20.71429,-10.87309 -20.71429,-24.28572 0,-13.41263 9.2741,-24.28571 20.71429,-24.28571 11.44018,0 20.71428,10.87308 20.71428,24.28571 z"
             transform="matrix(1.3793104,0,0,1.9705882,111.62562,-478.30109)" />
          <path
             sodipodi:type="arc"
             style="fill:#ffffff;fill-opacity:1;fill-rule:nonzero;stroke:none"
             id="path3827"
             sodipodi:cx="-211.42857"
             sodipodi:cy="493.07648"
             sodipodi:rx="8.5714283"
             sodipodi:ry="7.8571429"
             d="m -202.85715,493.07648 c 0,4.33938 -3.83755,7.85714 -8.57142,7.85714 -4.73387,0 -8.57143,-3.51776 -8.57143,-7.85714 0,-4.33938 3.83756,-7.85715 8.57143,-7.85715 4.73387,0 8.57142,3.51777 8.57142,7.85715 z"
             transform="matrix(1.3793104,0,0,1.34,89.95074,-157.68885)" />
        </g>
      </g>
    </g>
    <g
       id="g3853">
      <rect
         y="569.9129"
         x="-551.84937"
         height="90"
         width="90"
         id="rect2985"
         style="fill:#ffffff;fill-opacity:0.50632911000000003;fill-rule:nonzero;stroke:none" />
      <g
         transform="matrix(1.1231805,0,0,1.1231805,171.07032,-75.887089)"
         id="g3843">
        <g
           id="g3783"
           transform="matrix(0.17403316,0,0,0.17403316,-545.41951,520.07257)">
          <path
             sodipodi:nodetypes="sssss"
             inkscape:connector-curvature="0"
             id="path2987"
             d="m -211.42857,589.50507 c 0,99.41125 -82.50753,180 -184.28572,180 -101.7782,0 -152.85716,-143.44589 -152.85716,-242.85714 0,-99.41126 51.07896,-117.14286 152.85716,-117.14286 101.77819,0 184.28572,80.58874 184.28572,180 z"
             style="fill:#d30f21;fill-opacity:1;fill-rule:nonzero;stroke:none" />
          <path
             inkscape:connector-curvature="0"
             id="path2995"
             d="m -377.14285,443.29178 c 0,0 71.42857,-57.82611 2.85714,-111.79714 l 28.57143,-9.63769 c 0,0 57.14286,102.15946 14.28571,123.36237 z"
             style="fill:#803300;stroke:none" />
          <path
             sodipodi:nodetypes="sssss"
             inkscape:connector-curvature="0"
             id="path2989"
             d="m -225.71428,543.79078 c 0,99.41125 -68.22182,225.71429 -170.00001,225.71429 -101.7782,0 -184.28573,-80.58875 -184.28573,-180 0,-99.41126 82.50753,-180 184.28573,-180 101.77819,0 170.00001,34.87445 170.00001,134.28571 z"
             style="fill:#d30f21;fill-opacity:1;fill-rule:nonzero;stroke:none"
             transform="translate(106,0)" />
          <g
             transform="translate(-10,0)"
             id="g3779">
            <path
               sodipodi:type="arc"
               style="fill:#e9afaf;fill-opacity:1;fill-rule:nonzero;stroke:none"
               id="path3775"
               sodipodi:cx="-232.14285"
               sodipodi:cy="502.36218"
               sodipodi:rx="20.714285"
               sodipodi:ry="24.285715"
               d="m -211.42857,502.36218 c 0,13.41263 -9.2741,24.28572 -20.71428,24.28572 -11.44019,0 -20.71429,-10.87309 -20.71429,-24.28572 0,-13.41263 9.2741,-24.28571 20.71429,-24.28571 11.44018,0 20.71428,10.87308 20.71428,24.28571 z"
               transform="matrix(1.3793104,0,0,1.9705882,111.62562,-478.30109)" />
            <path
               sodipodi:type="arc"
               style="fill:#ffffff;fill-opacity:1;fill-rule:nonzero;stroke:none"
               id="path3777"
               sodipodi:cx="-211.42857"
               sodipodi:cy="493.07648"
               sodipodi:rx="8.5714283"
               sodipodi:ry="7.8571429"
               d="m -202.85715,493.07648 c 0,4.33938 -3.83755,7.85714 -8.57142,7.85714 -4.73387,0 -8.57143,-3.51776 -8.57143,-7.85714 0,-4.33938 3.83756,-7.85715 8.57143,-7.85715 4.73387,0 8.57142,3.51777 8.57142,7.85715 z"
               transform="matrix(1.3793104,0,0,1.34,89.95074,-157.68885)" />
          </g>
        </g>
        <path
           style="fill:#0fd327;fill-opacity:1;stroke:none"
           d="m -600.28315,590.97501 c 0,0 -3.78807,-9.34391 12.62691,-12.87945 -2.52538,16.16244 -12.62691,12.87945 -12.62691,12.87945 z"
           id="path3833"
           inkscape:connector-curvature="0" />
      </g>
    </g>
    <g
       id="g3865"
       transform="translate(-97.732259,-9.0913729)"
       style="filter:url(#filter3981)"
       inkscape:export-filename="C:\Users\peoplespete\Desktop\item-placeholder.png"
       inkscape:export-xdpi="90"
       inkscape:export-ydpi="90">
      <rect
         style="fill:#ffffff;fill-opacity:0.50632911;fill-rule:nonzero;stroke:none"
         id="rect3867"
         width="90"
         height="90"
         x="-551.84937"
         y="569.9129" />
      <g
         id="g3869"
         transform="matrix(1.1231805,0,0,1.1231805,171.07032,-75.887089)">
        <g
           transform="matrix(0.17403316,0,0,0.17403316,-545.41951,520.07257)"
           id="g3871">
          <path
             style="fill:#d30f21;fill-opacity:1;fill-rule:nonzero;stroke:none"
             d="m -211.42857,589.50507 c 0,99.41125 -82.50753,180 -184.28572,180 -101.7782,0 -152.85716,-143.44589 -152.85716,-242.85714 0,-99.41126 51.07896,-117.14286 152.85716,-117.14286 101.77819,0 184.28572,80.58874 184.28572,180 z"
             id="path3873"
             inkscape:connector-curvature="0"
             sodipodi:nodetypes="sssss" />
          <path
             style="fill:#803300;stroke:none"
             d="m -377.14285,443.29178 c 0,0 71.42857,-57.82611 2.85714,-111.79714 l 28.57143,-9.63769 c 0,0 57.14286,102.15946 14.28571,123.36237 z"
             id="path3875"
             inkscape:connector-curvature="0" />
          <path
             transform="translate(106,0)"
             style="fill:#d30f21;fill-opacity:1;fill-rule:nonzero;stroke:none"
             d="m -225.71428,543.79078 c 0,99.41125 -68.22182,225.71429 -170.00001,225.71429 -101.7782,0 -184.28573,-80.58875 -184.28573,-180 0,-99.41126 82.50753,-180 184.28573,-180 101.77819,0 170.00001,34.87445 170.00001,134.28571 z"
             id="path3877"
             inkscape:connector-curvature="0"
             sodipodi:nodetypes="sssss" />
          <g
             id="g3879"
             transform="translate(-10,0)">
            <path
               transform="matrix(1.3793104,0,0,1.9705882,111.62562,-478.30109)"
               d="m -211.42857,502.36218 c 0,13.41263 -9.2741,24.28572 -20.71428,24.28572 -11.44019,0 -20.71429,-10.87309 -20.71429,-24.28572 0,-13.41263 9.2741,-24.28571 20.71429,-24.28571 11.44018,0 20.71428,10.87308 20.71428,24.28571 z"
               sodipodi:ry="24.285715"
               sodipodi:rx="20.714285"
               sodipodi:cy="502.36218"
               sodipodi:cx="-232.14285"
               id="path3881"
               style="fill:#e9afaf;fill-opacity:1;fill-rule:nonzero;stroke:none"
               sodipodi:type="arc" />
            <path
               transform="matrix(1.3793104,0,0,1.34,89.95074,-157.68885)"
               d="m -202.85715,493.07648 c 0,4.33938 -3.83755,7.85714 -8.57142,7.85714 -4.73387,0 -8.57143,-3.51776 -8.57143,-7.85714 0,-4.33938 3.83756,-7.85715 8.57143,-7.85715 4.73387,0 8.57142,3.51777 8.57142,7.85715 z"
               sodipodi:ry="7.8571429"
               sodipodi:rx="8.5714283"
               sodipodi:cy="493.07648"
               sodipodi:cx="-211.42857"
               id="path3883"
               style="fill:#ffffff;fill-opacity:1;fill-rule:nonzero;stroke:none"
               sodipodi:type="arc" />
          </g>
        </g>
        <path
           inkscape:connector-curvature="0"
           id="path3885"
           d="m -600.28315,590.97501 c 0,0 -3.78807,-9.34391 12.62691,-12.87945 -2.52538,16.16244 -12.62691,12.87945 -12.62691,12.87945 z"
           style="fill:#0fd327;fill-opacity:1;stroke:none" />
      </g>
    </g>
    <g
       id="g3022"
       transform="matrix(0.55555556,0,0,0.55555556,-144.25113,275.36442)"
       inkscape:export-filename="C:\Users\peoplespete\Desktop\favicon.png"
       inkscape:export-xdpi="90.779999"
       inkscape:export-ydpi="90.779999">
      <rect
         style="fill:#ffffff;fill-opacity:0.50632911;fill-rule:nonzero;stroke:none"
         id="rect3024"
         width="90"
         height="90"
         x="-551.84937"
         y="569.9129" />
      <g
         id="g3026"
         transform="matrix(1.1231805,0,0,1.1231805,171.07032,-75.887089)">
        <g
           transform="matrix(0.17403316,0,0,0.17403316,-545.41951,520.07257)"
           id="g3028">
          <path
             style="fill:#d30f21;fill-opacity:1;fill-rule:nonzero;stroke:none"
             d="m -211.42857,589.50507 c 0,99.41125 -82.50753,180 -184.28572,180 -101.7782,0 -152.85716,-143.44589 -152.85716,-242.85714 0,-99.41126 51.07896,-117.14286 152.85716,-117.14286 101.77819,0 184.28572,80.58874 184.28572,180 z"
             id="path3030"
             inkscape:connector-curvature="0"
             sodipodi:nodetypes="sssss" />
          <path
             style="fill:#803300;stroke:none"
             d="m -377.14285,443.29178 c 0,0 71.42857,-57.82611 2.85714,-111.79714 l 28.57143,-9.63769 c 0,0 57.14286,102.15946 14.28571,123.36237 z"
             id="path3032"
             inkscape:connector-curvature="0" />
          <path
             transform="translate(106,0)"
             style="fill:#d30f21;fill-opacity:1;fill-rule:nonzero;stroke:none"
             d="m -225.71428,543.79078 c 0,99.41125 -68.22182,225.71429 -170.00001,225.71429 -101.7782,0 -184.28573,-80.58875 -184.28573,-180 0,-99.41126 82.50753,-180 184.28573,-180 101.77819,0 170.00001,34.87445 170.00001,134.28571 z"
             id="path3034"
             inkscape:connector-curvature="0"
             sodipodi:nodetypes="sssss" />
          <g
             id="g3036"
             transform="translate(-10,0)">
            <path
               transform="matrix(1.3793104,0,0,1.9705882,111.62562,-478.30109)"
               d="m -211.42857,502.36218 c 0,13.41263 -9.2741,24.28572 -20.71428,24.28572 -11.44019,0 -20.71429,-10.87309 -20.71429,-24.28572 0,-13.41263 9.2741,-24.28571 20.71429,-24.28571 11.44018,0 20.71428,10.87308 20.71428,24.28571 z"
               sodipodi:ry="24.285715"
               sodipodi:rx="20.714285"
               sodipodi:cy="502.36218"
               sodipodi:cx="-232.14285"
               id="path3038"
               style="fill:#e9afaf;fill-opacity:1;fill-rule:nonzero;stroke:none"
               sodipodi:type="arc" />
            <path
               transform="matrix(1.3793104,0,0,1.34,89.95074,-157.68885)"
               d="m -202.85715,493.07648 c 0,4.33938 -3.83755,7.85714 -8.57142,7.85714 -4.73387,0 -8.57143,-3.51776 -8.57143,-7.85714 0,-4.33938 3.83756,-7.85715 8.57143,-7.85715 4.73387,0 8.57142,3.51777 8.57142,7.85715 z"
               sodipodi:ry="7.8571429"
               sodipodi:rx="8.5714283"
               sodipodi:cy="493.07648"
               sodipodi:cx="-211.42857"
               id="path3040"
               style="fill:#ffffff;fill-opacity:1;fill-rule:nonzero;stroke:none"
               sodipodi:type="arc" />
          </g>
        </g>
        <path
           inkscape:connector-curvature="0"
           id="path3042"
           d="m -600.28315,590.97501 c 0,0 -3.78807,-9.34391 12.62691,-12.87945 -2.52538,16.16244 -12.62691,12.87945 -12.62691,12.87945 z"
           style="fill:#0fd327;fill-opacity:1;stroke:none" />
      </g>
    </g>
  </g>
</svg>
